<svg width="22" height="22" viewBox="0 0 22 22" fill="none" xmlns="http://www.w3.org/2000/svg">
<path d="M4.125 8.06921C4.125 7.48493 4.125 7.19279 4.20613 6.9167C4.20921 6.90621 4.21238 6.89574 4.21563 6.8853C4.30128 6.61058 4.46333 6.36751 4.78743 5.88136V5.88136C5.3523 5.03405 5.63473 4.6104 6.0609 4.37475C6.0769 4.36591 6.09301 4.35728 6.10924 4.34888C6.54172 4.125 7.05088 4.125 8.06921 4.125H13.9308C14.9491 4.125 15.4583 4.125 15.8908 4.34888C15.907 4.35728 15.9231 4.36591 15.9391 4.37475C16.3653 4.6104 16.6477 5.03405 17.2126 5.88136V5.88136C17.5367 6.36751 17.6987 6.61058 17.7844 6.8853C17.7876 6.89574 17.7908 6.90621 17.7939 6.9167C17.875 7.19279 17.875 7.48493 17.875 8.06921V13.875C17.875 15.7606 17.875 16.7034 17.2892 17.2892C16.7034 17.875 15.7606 17.875 13.875 17.875H8.125C6.23938 17.875 5.29657 17.875 4.71079 17.2892C4.125 16.7034 4.125 15.7606 4.125 13.875V8.06921Z" stroke="white"/>
<path d="M4.125 8.70833H17.875" stroke="white" stroke-linecap="round"/>
<path d="M8.7085 8.85833C8.7085 8.77549 8.77565 8.70833 8.8585 8.70833H13.1418C13.2247 8.70833 13.2918 8.77549 13.2918 8.85833V12.4969C13.2918 12.8467 12.9102 13.0627 12.6103 12.8828L11.1288 11.9938C11.0496 11.9463 10.9507 11.9463 10.8715 11.9938L9.39002 12.8828C9.09008 13.0627 8.7085 12.8467 8.7085 12.4969V8.85833Z" stroke="white"/>
</svg>
