<svg width="82" height="55" viewBox="0 0 82 55" fill="none" xmlns="http://www.w3.org/2000/svg">
<path d="M32.571 29.1556C32.4062 29.7438 32.1643 30.2209 31.7549 30.5897C31.3074 31.0277 30.6715 31.3928 29.8943 31.5285C29.5229 31.5995 29.2557 31.635 28.8308 31.635C26.0173 31.635 24.5797 29.6627 24.5797 27.0312C24.5797 24.3988 25.952 22.3 28.7638 22.3C29.7258 22.3 30.4559 22.5003 31.0782 22.8727C31.773 23.2852 32.2857 23.9235 32.5094 24.2531L34.3619 23.3535C33.2124 21.6152 31.4034 20.8941 29.0691 20.8941C25.0073 20.8941 22.4482 23.195 22.4482 27.0085C22.4482 30.6634 24.6703 33.0764 28.8671 33.0764C31.6842 33.0764 34.4806 31.9036 34.7985 29.1556H32.571Z" fill="#D0103A"/>
<path d="M41.0143 25.2145C38.901 25.2145 37.535 26.5348 37.535 28.5772C37.535 30.6196 38.901 31.9399 41.0143 31.9399C43.1286 31.9399 44.4946 30.6196 44.4946 28.5772C44.4946 26.5348 43.1286 25.2145 41.0143 25.2145ZM41.0143 33.2056C37.5676 33.2056 35.6689 31.562 35.6689 28.5772C35.6689 25.6352 37.6174 23.9489 41.0143 23.9489C44.4611 23.9489 46.3606 25.5924 46.3606 28.5772C46.3606 31.562 44.4611 33.2056 41.0143 33.2056Z" fill="#D0103A"/>
<path d="M50.2957 32.8839H48.5311V25.5366H46.3245V24.27H48.5311V23.8202C48.5311 21.4846 49.4886 20.443 51.6363 20.443C52.1364 20.443 52.7125 20.4812 53.1763 20.5449L53.2261 20.5532V21.8234L53.159 21.8115C52.948 21.7733 52.5286 21.7105 52.0748 21.7105C50.7948 21.7105 50.2957 22.2304 50.2957 23.5653V24.27H53.0078V25.5366H50.2957V32.8839Z" fill="#D0103A"/>
<path d="M71.4072 22.3536H69.6426V20.5444H71.4072V22.3536Z" fill="#D0103A"/>
<path d="M71.4072 32.8839H69.6426V25.0686L71.3274 24.27H71.4072V32.8839Z" fill="#D0103A"/>
<path d="M56.2398 22.3536H54.4744V20.5444H56.2398V22.3536Z" fill="#D0103A"/>
<path d="M56.2399 32.8839H54.4744V25.085L56.2399 24.2427V32.8839Z" fill="#D0103A"/>
<path d="M77.2453 33.2056C75.0586 33.2056 73.5785 32.5172 73.0775 31.2661L73.0576 31.216L74.7606 30.4038L74.7733 30.4784C74.9418 31.4618 75.8105 31.9399 77.4301 31.9399C79.1748 31.9399 80.1359 31.4373 80.1359 30.5249C80.1359 29.7154 78.8876 29.5169 77.4437 29.2883C75.5007 28.9806 73.2968 28.6318 73.2968 26.6641C73.2968 24.9386 74.8159 23.9479 77.4637 23.9479C78.8858 23.9479 80.7211 24.2266 81.3878 25.5542L81.414 25.607L79.8632 26.3463L79.8406 26.289C79.5616 25.556 78.8279 25.2145 77.5316 25.2145C76.0551 25.2145 75.0632 25.709 75.0632 26.4438C75.0632 27.0083 75.604 27.3616 76.8178 27.5902L79.6141 28.1137C81.2646 28.4315 82.0019 29.1381 82.0019 30.4056C82.0019 32.2895 80.4457 33.2056 77.2453 33.2056Z" fill="#D0103A"/>
<path d="M62.7769 25.2145C60.7859 25.2145 59.4996 26.5348 59.4996 28.5772C59.4996 30.6196 60.7859 31.9399 62.7769 31.9399C64.768 31.9399 66.0543 30.6196 66.0543 28.5772C66.0543 26.5348 64.768 25.2145 62.7769 25.2145ZM62.4064 33.2056C59.6853 33.2056 57.6335 31.216 57.6335 28.5772C57.6335 25.9384 59.6853 23.9489 62.4064 23.9489C63.9545 23.9489 65.1493 24.3914 66.0543 25.3028V21.3428L67.7391 20.5452H67.8188V30.8299C67.8188 31.3817 67.8496 32.0592 67.8868 32.824L67.8904 32.8841H66.1276L66.1222 32.8322C66.0923 32.509 66.0615 32.163 66.0552 31.7724C65.1937 32.6847 63.8739 33.2056 62.4064 33.2056Z" fill="#D0103A"/>
<path d="M34.4818 18.0449C34.374 17.9457 34.5489 17.2609 34.7527 16.5926C35.9194 12.9649 41.8147 6.62471 42.7486 6.15486C43.168 5.94361 41.2539 9.19521 39.3517 12.6216C38.261 14.5884 34.7101 18.1988 34.4909 18.0404C34.4873 18.0385 34.4846 18.044 34.4818 18.0449Z" fill="#D0103A"/>
<path d="M28.8301 54.2168C28.706 54.316 28.4949 53.5776 28.4089 53.0321C27.4922 47.2337 27.118 38.9477 28.715 36.6813C28.7404 36.6467 28.7649 36.6203 28.7911 36.5993C28.879 36.5283 28.9877 36.5156 29.0828 36.5647C29.2024 36.6266 29.7323 36.8934 30.0185 40.3727C30.1825 42.3759 30.1073 44.2125 29.9832 45.6903C29.7196 48.8472 29.2504 53.8781 28.8301 54.2168Z" fill="#FECB00"/>
<path d="M9.84935 37.6716C9.63829 37.6561 10.0133 37.2801 10.0133 37.2801C13.8233 33.7954 17.1812 32.4523 18.9594 32.4523C19.1071 32.4523 19.2375 32.4641 19.3453 32.4869C19.5102 32.5224 19.6252 32.5834 19.685 32.6654C19.877 32.7455 19.9124 32.893 19.9187 32.9577C19.9377 33.1671 20.4984 33.5677 16.2582 35.6165C14.8387 36.3021 10.3258 37.7062 9.84935 37.6716Z" fill="#FECB00"/>
<path d="M21.4526 22.2169H21.4516C17.5184 21.89 13.2909 16.7909 10.7654 13.7442C10.1114 12.9556 9.06782 11.7628 9.14301 11.6235C9.16837 11.5752 9.24899 11.5561 9.40751 11.5916C10.1014 11.7464 14.3163 13.9454 16.8327 15.9559C16.8925 16.0032 22.727 20.8082 22.3266 21.961C22.2832 22.0858 22.1636 22.2342 21.8402 22.2333C21.7134 22.2333 21.5821 22.2278 21.4526 22.2169Z" fill="#FECB00"/>
<path d="M12.8241 28.5885C11.555 28.5885 9.12826 28.4501 7.94795 28.41C5.73226 28.3335 -0.314248 27.8446 0.0127613 27.4439C0.286326 27.1098 6.2504 25.7904 11.5559 25.7904C13.595 25.7904 15.4972 25.8778 17.2102 26.0499C19.6723 26.2984 20.2004 26.8448 20.3046 27.006C20.3571 27.0888 20.3698 27.1872 20.3381 27.2828C20.2466 27.5669 19.8 27.7499 19.7493 27.7699C18.3353 28.3281 16.1341 28.5885 12.8241 28.5885Z" fill="#FECB00"/>
<path d="M39.2871 45.2723C37.5261 43.8555 33.4544 37.895 32.8411 35.1505C32.7496 34.739 32.8946 34.6088 32.929 34.5678C32.9815 34.505 33.0549 34.4685 33.1355 34.464H33.1419C33.2696 34.464 33.4743 34.4831 34.7416 35.8717C36.4726 37.7684 37.96 40.4391 38.6929 41.8614C39.3143 43.0697 40.3786 45.4426 40.2536 45.8924C40.2074 46.0599 39.2871 45.2723 39.2871 45.2723Z" fill="#FECB00"/>
<path d="M30.2683 18.6113C30.2184 18.6013 30.1731 18.5785 30.1342 18.543C30.0472 18.4647 29.8869 18.3199 29.9041 16.1409C29.9403 11.1948 32.4033 4.43209 32.974 3.76101C33.0438 3.67906 33.0845 3.59803 33.1334 3.60713C33.2503 3.63081 33.2548 3.71913 33.2711 3.89305C33.7639 10.7413 32.1397 16.5024 30.8453 18.2325C30.6306 18.5221 30.4413 18.6459 30.2683 18.6113Z" fill="#FECB00"/>
<path d="M24.4277 18.17L24.3489 18.1291C24.2565 18.0817 22.058 16.8989 19.6185 11.065C17.8983 6.9529 17.1184 4.38057 16.7008 2.91276C16.2126 1.19454 15.9997 0.188369 16.2234 0.00534698C16.2724 -0.0347174 16.4635 0.173804 16.5052 0.222974C16.7289 0.486126 17.4808 1.25099 21.2808 8.15847C24.4521 13.925 25.1206 16.7141 25.1098 17.3023C25.1016 17.8104 24.5309 18.1154 24.5065 18.1291L24.4277 18.17Z" fill="#FECB00"/>
<path d="M15.0404 45.6766C16.7498 42.8957 17.7118 40.1595 21.0036 36.3971C22.6269 34.5423 24.0835 34.1271 24.3299 34.1544C24.3915 34.1617 24.4467 34.1835 24.4965 34.2181C24.7991 34.4348 24.6723 35.0331 24.6505 35.0995C23.5626 38.3593 20.5788 42.4168 18.749 44.613C16.189 47.6862 12.8438 50.8422 12.726 50.4634C12.6092 50.0846 14.0875 47.2263 15.0404 45.6766Z" fill="#FECB00"/>
</svg>
