<svg width="16" height="17" viewBox="0 0 16 17" fill="none" xmlns="http://www.w3.org/2000/svg">
<path d="M7.99984 0.269531C3.58169 0.269531 0 3.85122 0 8.26937C0 12.021 2.58299 15.1691 6.0674 16.0337V10.7141H4.41783V8.26937H6.0674V7.21595C6.0674 4.49313 7.29969 3.23107 9.97292 3.23107C10.4798 3.23107 11.3543 3.33059 11.7121 3.42979V5.64574C11.5233 5.6259 11.1953 5.61598 10.7879 5.61598C9.47629 5.61598 8.96942 6.11293 8.96942 7.40475V8.26937H11.5825L11.1335 10.7141H8.96942V16.2107C12.9306 15.7323 16 12.3595 16 8.26937C15.9997 3.85122 12.418 0.269531 7.99984 0.269531Z" fill="white"/>
</svg>
