<svg width="512" height="512" viewBox="0 0 512 512" fill="none" xmlns="http://www.w3.org/2000/svg">
<g clip-path="url(#clip0_301_670)">
<path d="M171.39 164.905L167.609 229.679V235.93L169.172 235.35L218.707 191.71L219.133 188.28L217.456 189.766V189.795L169.666 231.889L173.62 164.821V164.614L151.33 94.5023L151.249 94.2497L83.2291 24.4912L72.416 13.4078L72.6544 13.5636L65.4812 6.15076V9.51831L149.304 95.4368L171.39 164.905Z" fill="#232329" stroke="#232329" stroke-width="2"/>
<path d="M354.36 318.886L353.969 316.015L354.02 314.976L312.807 386.292L310.252 283.704L337.174 298.912L338.937 297.751L340.942 296.429L353.641 288.056L351.04 270.625L324.45 265.995L355.178 242.254L353.262 240.827L321.951 265.09L259.576 186.963L254.152 181.289L250.827 183.418L185.625 265.043L156.251 240.145L154.016 241.336L154.195 241.475L154.259 241.391L156.319 243.133L183.216 265.927L169.303 268.158L152.198 270.899L150.76 289.42L168.541 301.139L196.451 284.756V386.767L151.832 323.125L151.198 326.135L196.323 390.48L178.503 434.957L179.81 437.764L197.873 392.686L198.724 390.909L214.28 379.801H252.658V478.255L237.192 486.888H206.694L211.606 489.119H237.749L252.649 481.227V507.78L254.905 506.807V481.227L267.03 489.119H295.978L301.163 486.888H267.724L254.918 478.255L254.952 450.186L254.922 395.935L255.012 395.902V379.784H297.758L310.657 390.838L311.508 393.022L327.757 440.387L329.167 437.545L312.99 390.434L354.36 318.886ZM334.015 276.884C335.099 276.884 336.158 277.202 337.059 277.797C337.96 278.393 338.663 279.239 339.077 280.229C339.492 281.219 339.6 282.308 339.389 283.359C339.178 284.41 338.656 285.375 337.89 286.133C337.123 286.89 336.147 287.406 335.084 287.615C334.021 287.825 332.92 287.717 331.919 287.307C330.918 286.897 330.062 286.203 329.46 285.312C328.858 284.421 328.537 283.373 328.537 282.302C328.537 280.865 329.114 279.487 330.141 278.471C331.169 277.455 332.562 276.884 334.015 276.884ZM173.633 287.72C172.538 287.72 171.468 287.399 170.558 286.797C169.648 286.196 168.939 285.341 168.52 284.341C168.101 283.341 167.991 282.241 168.205 281.18C168.419 280.118 168.946 279.143 169.72 278.378C170.494 277.613 171.48 277.091 172.553 276.88C173.627 276.669 174.74 276.777 175.751 277.192C176.762 277.606 177.626 278.307 178.235 279.207C178.843 280.107 179.167 281.165 179.167 282.247C179.167 282.966 179.024 283.677 178.746 284.341C178.468 285.005 178.06 285.609 177.546 286.117C177.032 286.625 176.422 287.028 175.751 287.303C175.079 287.578 174.36 287.72 173.633 287.72ZM252.645 377.553H213.522L198.707 388.131V283.552L252.641 263.768L252.645 377.553ZM252.645 261.373L198.712 281.157L187.358 266.483L252.645 184.732V261.373ZM254.901 184.711L319.771 265.953L312.108 276.434L308.749 280.467L307.898 280.256L254.91 261.36L254.901 184.711ZM298.605 377.54H254.901V263.755L307.949 282.672L310.584 387.82L298.605 377.54Z" fill="#232329" stroke="#232329" stroke-width="2"/>
<path d="M445.198 5.8816L438.213 13.0376L425.182 26.352L423.432 28.1368L355.399 97.6596L355.203 97.8616L334.709 168.336L334.658 168.517L337.732 229.162L295.587 193.432L288.349 187.775L287.732 189.72L337.898 232.235V232.374L339.78 233.405V224.872L336.936 168.778L357.221 99.0193L431.721 22.875L444.79 9.51857V9.6785L447.046 7.397V4L445.198 5.8816Z" fill="#232329" stroke="#232329" stroke-width="2"/>
<path d="M209.482 389.607H209.483C223.373 394.179 237.928 396.463 252.567 396.368H252.583L254.921 396.279L255.915 396.313H255.922C270.319 396.59 284.651 394.319 298.241 389.609L298.24 389.608L298.899 389.389L303.659 411.048L254.661 449.381L252.741 449.379L204.056 411.045L208.816 389.386L209.482 389.607ZM186.879 266.855L198.098 281.36L198.13 283.158L168.421 300.535L148.968 288.07L150.194 271.753L185.394 265.584L186.879 266.855ZM173.459 276.776C172.375 276.776 171.315 277.093 170.414 277.689C169.512 278.285 168.807 279.133 168.391 280.126C167.975 281.118 167.867 282.211 168.079 283.265C168.291 284.319 168.814 285.287 169.582 286.046C170.349 286.804 171.326 287.321 172.389 287.53C173.452 287.739 174.554 287.631 175.555 287.221C176.557 286.811 177.414 286.116 178.017 285.223C178.621 284.33 178.943 283.28 178.943 282.205C178.943 280.763 178.364 279.382 177.335 278.364C176.306 277.346 174.911 276.776 173.459 276.776Z" fill="#232329" stroke="#232329"/>
<path d="M351.726 271.15L353.128 272.51L355.468 286.237L336.96 298.624L308.393 282.495L309.032 280.744L319.919 266.178L321.816 265.385L351.726 271.15ZM335.834 277.32C334.817 276.908 333.699 276.804 332.623 277.022C331.546 277.24 330.558 277.77 329.786 278.546C329.013 279.321 328.491 280.307 328.287 281.379C328.082 282.45 328.204 283.557 328.637 284.558C329.071 285.56 329.796 286.411 330.718 287.004C331.64 287.595 332.717 287.901 333.814 287.885L333.815 287.886V287.885H333.818C334.539 287.88 335.253 287.735 335.917 287.457C336.583 287.178 337.187 286.772 337.695 286.262C338.202 285.753 338.604 285.149 338.875 284.485C339.147 283.821 339.284 283.111 339.279 282.394C339.278 281.305 338.95 280.242 338.337 279.339C337.724 278.434 336.852 277.732 335.834 277.32Z" fill="#232329" stroke="#232329"/>
<path d="M443.462 8.2094L346.259 70.5088L320.159 147.933L287.489 188.091L254.927 181.313V181.288L253.811 181.052L251.857 181.549L220.019 189.623L191.922 149.705L158.614 68.7072L65 6.99712V107.038L149.44 245.528L140.972 256.894L151.168 266.975L149.844 284.427L149.597 287.69L148.512 302.002V302.141L151.198 317.185L143.591 361.384L143.531 361.721L178.056 436.181V436.223L205.557 486.98L253.871 508.423L254.935 507.939V507.897L298.03 488.601L301.649 486.98H301.721L302.177 486.783L329.563 438.93V438.892L365.148 367.058L355.616 314.988L359.137 297.569L355.276 286.107L354.13 279.696L352.853 272.241L368.421 255.037L355.71 240.67L380.478 195.205L445.296 105.295V6.33618L443.462 8.2094Z" stroke="#232329" stroke-width="6" stroke-miterlimit="10"/>
<path d="M168.639 233.165L150.053 243.579L150.713 245.882L168.239 235.855L168.639 233.165Z" fill="#232329" stroke="#232329" stroke-width="2"/>
<path d="M339.754 233.4L355.165 242.24V239.525L337.711 229.157L339.754 233.4Z" fill="#232329" stroke="#232329" stroke-width="2"/>
</g>
<defs>
<clipPath id="clip0_301_670">
<rect width="512" height="512" fill="white"/>
</clipPath>
</defs>
</svg>
