<svg width="231" height="48" viewBox="0 0 231 48" fill="none" xmlns="http://www.w3.org/2000/svg">
<path d="M0.718722 24.3203C2.08104 22.6468 4.69083 22.7337 5.93552 24.4941L15.6836 38.2802L23.6601 46.9541C23.7886 47.0938 23.9201 47.2309 24.0527 47.3662H17.5L13.1035 42.5859L15.9863 47.3662H10.3506L7.85349 43.2246L5.22946 38.582L0.283175 27.6435C-0.214507 26.5428 -0.0462971 25.2601 0.718722 24.3203Z" fill="#C0CAD1"/>
<path d="M133.592 0.144506C140.549 -0.323833 147.537 0.35004 154.27 2.13865C160.563 3.81015 166.555 6.43385 172.032 9.91697L172.838 10.4297L180.713 16.1719L186.249 19.331C187.176 19.8602 188.272 20.0228 189.316 19.7861L190.898 19.4277C191.521 19.2863 192.006 18.8039 192.145 18.1885C192.263 17.6678 192.116 17.1236 191.752 16.7295L188.031 12.707L186.45 10.8203C184.335 8.29563 186.156 4.48142 189.477 4.48142C190.134 4.48144 190.781 4.64499 191.358 4.95603L198.858 8.99802L206.263 12.2597L215.743 17.2959L220.945 19.7314L226.848 21.8193C229.671 21.9991 231.192 25.2671 229.395 27.5058L227.566 29.7812C226.883 30.6319 225.933 31.2356 224.865 31.498L221.203 32.3984C219.933 32.7105 218.628 32.8681 217.319 32.8681H213.467L207.387 33.3398C205.421 33.4923 203.515 34.0784 201.811 35.0556L201.423 35.2568L195.27 38.7646L191.175 41.706C189.81 42.6864 188.647 43.9153 187.75 45.3261C187.295 46.0411 186.79 46.7227 186.238 47.3662H179.47L181.775 45.1006C182.486 44.402 183.113 43.6255 183.646 42.7871C184.872 40.8604 186.459 39.1825 188.323 37.8437L192.629 34.7519L199.377 30.9258L199.382 30.9228C201.713 29.5873 204.319 28.7857 207.007 28.5771L213.276 28.0908H217.319C218.234 28.0908 219.145 27.9806 220.032 27.7627L223.694 26.8623C223.724 26.8548 223.751 26.8383 223.77 26.8144L224.401 26.0293L219.085 24.1484L213.555 21.5605L204.124 16.5498L196.706 13.2822L193.543 11.5771L195.33 13.5088C196.759 15.0532 197.334 17.188 196.873 19.2285C196.328 21.6407 194.425 23.5291 191.983 24.083L190.402 24.4414C188.163 24.9492 185.812 24.6007 183.823 23.4658L178.053 20.1728L170.083 14.3613L169.407 13.9316C164.351 10.7163 158.82 8.29394 153.011 6.75095C146.795 5.0999 140.344 4.47782 133.922 4.91013L133.113 4.96482C128.16 5.29827 123.264 6.20801 118.527 7.67478L116.813 8.20505C110.67 10.1074 104.788 12.7512 99.3017 16.0761L98.375 16.6386C94.561 18.9502 90.9336 21.5486 87.5254 24.4111L78.7588 31.7734L65.1758 43.8642L60.6181 47.3662H52.7314C52.791 47.3212 52.8519 47.2779 52.9111 47.2324L62.0605 40.2011L75.5664 28.1806L84.3847 20.7734C87.9828 17.7515 91.8125 15.0086 95.8388 12.5683L96.7666 12.0058C102.592 8.47494 108.838 5.66761 115.362 3.64744L117.076 3.11619C122.177 1.53671 127.449 0.557303 132.783 0.198217L133.592 0.144506Z" fill="#C0CAD1"/>
<path d="M100.434 38.7168C103.516 38.4776 106.614 38.9163 109.503 40.0019C113.062 41.3395 116.183 43.6127 118.526 46.5742L119.12 47.3232C119.131 47.3374 119.142 47.352 119.153 47.3662H112.651C111.221 46.1266 109.573 45.1411 107.779 44.4668C105.56 43.6329 103.181 43.2958 100.813 43.4795L98.5595 43.6543C96.542 43.8108 94.5497 44.1977 92.623 44.8086L92.1162 44.9697C90.1779 45.5842 88.308 46.3876 86.5341 47.3662H77.5097L77.7197 47.2568L82.0713 44.4502C84.7298 42.7355 87.6097 41.3806 90.6338 40.4218L91.1406 40.2607C93.425 39.5365 95.7875 39.0772 98.1797 38.8916L100.434 38.7168Z" fill="#C0CAD1"/>
<path d="M163.237 36.3789C165.441 36.3789 167.589 37.0699 169.368 38.3525L169.771 38.6435C170.987 39.5197 171.946 40.6979 172.552 42.0576C173.302 43.7423 173.465 45.6061 173.046 47.3662H167.896L168.067 47.0136C168.531 46.057 168.548 44.9483 168.116 43.9775C167.854 43.3894 167.44 42.88 166.914 42.5009L166.511 42.2099C165.561 41.5251 164.414 41.1563 163.237 41.1562H162.673C161.103 41.1563 159.575 41.657 158.317 42.584L155.892 44.373C154.723 45.2347 153.682 46.2426 152.791 47.3662H147.024C148.485 44.7009 150.517 42.3703 152.992 40.5459L155.418 38.7578C157.513 37.2138 160.058 36.379 162.673 36.3789H163.237Z" fill="#C0CAD1"/>
</svg>
