<svg width="2560" height="1280" viewBox="0 0 2560 1280" fill="none" xmlns="http://www.w3.org/2000/svg">
<g clip-path="url(#clip0_316_940)">
<path d="M0.5 1020.2L1.16506 89.75L720.5 1276.5L157.096 1278.75L0.5 1020.2Z" fill="url(#paint0_linear_316_940)"/>
<path d="M2212.5 -0.25H2558.5V570.75L2212.5 -0.25Z" fill="url(#paint1_linear_316_940)"/>
<path d="M1646.5 -0.25H2213.33L2560.5 570.681L2559.83 1277.97L2420.96 1279.75L1646.5 -0.25Z" fill="url(#paint2_linear_316_940)"/>
<path d="M0.5 89.2444V-0.25H516.818L1288.5 1279L720.316 1276.37L0.5 89.2444Z" fill="url(#paint3_linear_316_940)"/>
<path d="M516.5 -0.25H1080.95L1856.5 1279.75L1288.44 1279.16L516.5 -0.25Z" fill="url(#paint4_linear_316_940)"/>
<path d="M1080.5 -0.25H1647.08L2420.5 1278.56L1855.94 1279.75L1080.5 -0.25Z" fill="url(#paint5_linear_316_940)"/>
<path d="M1 1279V1020L157.5 1278.5L1 1279Z" fill="url(#paint6_linear_316_940)"/>
<rect x="1" y="433" width="2559" height="846" fill="url(#paint7_linear_316_940)"/>
</g>
<defs>
<linearGradient id="paint0_linear_316_940" x1="287.623" y1="739.918" x2="-17.6179" y2="921.402" gradientUnits="userSpaceOnUse">
<stop offset="0.308084" stop-color="white"/>
<stop offset="1" stop-color="#F3F3F3"/>
</linearGradient>
<linearGradient id="paint1_linear_316_940" x1="2649.58" y1="201.945" x2="2344.34" y2="382.919" gradientUnits="userSpaceOnUse">
<stop offset="0.308084" stop-color="white"/>
<stop offset="1" stop-color="#F3F3F3"/>
</linearGradient>
<linearGradient id="paint2_linear_316_940" x1="2390.17" y1="429.583" x2="2084.46" y2="611.476" gradientUnits="userSpaceOnUse">
<stop offset="0.55" stop-color="white"/>
<stop offset="1" stop-color="#F3F3F3"/>
</linearGradient>
<linearGradient id="paint3_linear_316_940" x1="777.632" y1="763.12" x2="543.927" y2="914.346" gradientUnits="userSpaceOnUse">
<stop offset="0.433842" stop-color="white"/>
<stop offset="1" stop-color="#F3F3F3"/>
</linearGradient>
<linearGradient id="paint4_linear_316_940" x1="1346.49" y1="765.734" x2="1112.64" y2="917.164" gradientUnits="userSpaceOnUse">
<stop offset="0.433842" stop-color="white"/>
<stop offset="1" stop-color="#F3F3F3"/>
</linearGradient>
<linearGradient id="paint5_linear_316_940" x1="1911.58" y1="765.973" x2="1677.82" y2="917.369" gradientUnits="userSpaceOnUse">
<stop offset="0.433842" stop-color="white"/>
<stop offset="1" stop-color="#F3F3F3"/>
</linearGradient>
<linearGradient id="paint6_linear_316_940" x1="165.239" y1="800.938" x2="-92.7109" y2="915.332" gradientUnits="userSpaceOnUse">
<stop offset="0.308084" stop-color="white"/>
<stop offset="1" stop-color="#F3F3F3"/>
</linearGradient>
<linearGradient id="paint7_linear_316_940" x1="1263.62" y1="440.981" x2="1239.4" y2="1239.49" gradientUnits="userSpaceOnUse">
<stop stop-color="white" stop-opacity="0"/>
<stop offset="0.738895" stop-color="white"/>
</linearGradient>
<clipPath id="clip0_316_940">
<rect width="2560" height="1280" fill="white"/>
</clipPath>
</defs>
</svg>
