<svg width="768" height="550" viewBox="0 0 768 550" fill="none" xmlns="http://www.w3.org/2000/svg">
<path d="M0 39.3008V0.00292969H155L388 550.003H217.703L0 39.3008Z" fill="url(#paint0_linear_408_945)"/>
<path d="M0 550.004V439L47.1396 550.004H0Z" fill="url(#paint1_linear_408_945)"/>
<path d="M154.873 0.00292969H324.5L558 550.003H388L154.873 0.00292969Z" fill="url(#paint2_linear_408_945)"/>
<path d="M324.5 0H493.5L726.5 550H557.999L324.5 0Z" fill="url(#paint3_linear_408_945)"/>
<path d="M493.5 0.00292969H673.5L768 246.003V550.003H726.5L493.5 0.00292969Z" fill="url(#paint4_linear_408_945)"/>
<path d="M673.5 0.00292969H768.001V246.503L673.5 0.00292969Z" fill="url(#paint5_linear_408_945)"/>
<path d="M0 439V39.0029L217.762 550.003H46.5L0 439Z" fill="url(#paint6_linear_408_945)"/>
<rect y="307" width="768" height="243" fill="url(#paint7_linear_408_945)"/>
<defs>
<linearGradient id="paint0_linear_408_945" x1="234.164" y1="328.206" x2="151.336" y2="365.744" gradientUnits="userSpaceOnUse">
<stop offset="0.433842" stop-color="#112F45"/>
<stop offset="1" stop-color="#15354D"/>
</linearGradient>
<linearGradient id="paint1_linear_408_945" x1="49.3243" y1="341.427" x2="-35.4766" y2="367.314" gradientUnits="userSpaceOnUse">
<stop offset="0.308084" stop-color="#15354D"/>
<stop offset="1" stop-color="#112F45"/>
</linearGradient>
<linearGradient id="paint2_linear_408_945" x1="404.616" y1="329.538" x2="321.858" y2="367.115" gradientUnits="userSpaceOnUse">
<stop offset="0.433842" stop-color="#112F45"/>
<stop offset="1" stop-color="#15354D"/>
</linearGradient>
<linearGradient id="paint3_linear_408_945" x1="573.944" y1="329.239" x2="491.164" y2="366.765" gradientUnits="userSpaceOnUse">
<stop offset="0.433842" stop-color="#112F45"/>
<stop offset="1" stop-color="#15354D"/>
</linearGradient>
<linearGradient id="paint4_linear_408_945" x1="717.211" y1="184.913" x2="611.282" y2="228.856" gradientUnits="userSpaceOnUse">
<stop offset="0.308084" stop-color="#112F45"/>
<stop offset="1" stop-color="#15354D"/>
</linearGradient>
<linearGradient id="paint5_linear_408_945" x1="789.805" y1="52.7418" x2="709.901" y2="100.474" gradientUnits="userSpaceOnUse">
<stop offset="0.308084" stop-color="#112F45"/>
<stop offset="1" stop-color="#15354D"/>
</linearGradient>
<linearGradient id="paint6_linear_408_945" x1="86.6262" y1="321.248" x2="-19.0103" y2="365.805" gradientUnits="userSpaceOnUse">
<stop offset="0.43" stop-color="#112F45"/>
<stop offset="1" stop-color="#15354D"/>
</linearGradient>
<linearGradient id="paint7_linear_408_945" x1="422.501" y1="307" x2="417.529" y2="561.921" gradientUnits="userSpaceOnUse">
<stop stop-color="#112F45" stop-opacity="0"/>
<stop offset="0.738895" stop-color="#112F45"/>
</linearGradient>
</defs>
</svg>
