<svg width="1112" height="159" viewBox="0 0 1112 159" fill="none" xmlns="http://www.w3.org/2000/svg">
<rect width="1112" height="159" fill="#112434"/>
<path d="M0 11L315 159H0V11Z" fill="#2F5979"/>
<path d="M224.716 0L562.022 158L314.603 158.5L0 11V0H224.716Z" fill="#2C506B"/>
<path d="M470.847 0L808.153 158L560.733 158.5L224.746 0H246.131H470.847Z" fill="#234661"/>
<path d="M470.847 0L808.153 158L560.733 158.5L224.746 0H246.131H470.847Z" fill="#234661"/>
<path d="M714.995 0L1052.3 158L804.882 158.5L468.895 0H490.279H714.995Z" fill="#173851"/>
<path fill-rule="evenodd" clip-rule="evenodd" d="M1112 70.5026V150C1112 154.418 1108.42 158 1104 158H1050.31L715.385 0H736.769H961.486L1112 70.5026Z" fill="#102E44"/>
<path d="M224.707 0L562 158.498L314.59 159L0 11.0347V0H224.707Z" fill="#2C506B"/>
<path d="M470.847 0L808.153 158L560.733 158.5L224.746 0H246.131H470.847Z" fill="#234661"/>
<path d="M470.847 0L808.153 158L560.733 158.5L224.746 0H246.131H470.847Z" fill="#234661"/>
<path fill-rule="evenodd" clip-rule="evenodd" d="M1112 70.5026V150C1112 154.418 1108.42 158 1104 158H1050.31L715.385 0H736.769H961.486L1112 70.5026Z" fill="#102E44"/>
</svg>
