<svg width="1080" height="720" viewBox="0 0 1080 720" fill="none" xmlns="http://www.w3.org/2000/svg">
<rect width="1080" height="720" fill="#112434"/>
<path d="M0 49.8115L305.936 720H0V49.8115Z" fill="#2F5979"/>
<path d="M0 573.962L66.6562 720H0V573.962Z" fill="#356385"/>
<path d="M218.25 0L545.85 715.471L305.55 717.736L0 49.8113V0H218.25Z" fill="#2C506B"/>
<path d="M457.297 0L784.898 715.471L544.597 717.736L218.278 0H239.047H457.297Z" fill="#234661"/>
<path d="M457.297 0L784.898 715.471L544.597 717.736L218.278 0H239.047H457.297Z" fill="#234661"/>
<path d="M694.419 0L1021.22 720H783.56L455.4 0H476.169H694.419Z" fill="#173851"/>
<path d="M1080 320.111V719.443L1021.15 720L694.61 0H933.79L1080 320.111Z" fill="#102E44"/>
<path d="M218.241 0L543.814 720H305.538L0 49.9684V0H218.241Z" fill="#2C506B"/>
<path d="M456.718 0L783.562 720H543.816L218.25 0H238.971H456.718Z" fill="#234661"/>
<path d="M456.718 0L783.562 720H543.816L218.25 0H238.971H456.718Z" fill="#234661"/>
</svg>
