<svg width="768" height="550" viewBox="0 0 768 550" fill="none" xmlns="http://www.w3.org/2000/svg">
<rect width="768" height="550" fill="#112434"/>
<path d="M0 38.0505L217.554 550H0V38.0505Z" fill="#2F5979"/>
<path d="M0 438.443L47.4 550H0V438.443Z" fill="#356385"/>
<path d="M155.2 0L388.16 546.541L217.28 548.27L0 38.0503V0H155.2Z" fill="#2C506B"/>
<path d="M325.189 0L558.15 546.541L387.269 548.27L155.22 0H169.989H325.189Z" fill="#234661"/>
<path d="M325.189 0L558.15 546.541L387.269 548.27L155.22 0H169.989H325.189Z" fill="#234661"/>
<path d="M493.809 0L726.198 550H557.198L323.84 0H338.609H493.809Z" fill="#173851"/>
<path d="M768 244.529V549.575L726.15 550L493.945 0H664.028L768 244.529Z" fill="#102E44"/>
<path d="M155.194 0L386.712 550H217.271L0 38.1703V0H155.194Z" fill="#2C506B"/>
</svg>
