<svg width="16" height="17" viewBox="0 0 16 17" fill="none" xmlns="http://www.w3.org/2000/svg">
<path d="M14.8156 0.240234H1.18125C0.528125 0.240234 0 0.755859 0 1.39336V15.084C0 15.7215 0.528125 16.2402 1.18125 16.2402H14.8156C15.4688 16.2402 16 15.7215 16 15.0871V1.39336C16 0.755859 15.4688 0.240234 14.8156 0.240234ZM4.74687 13.8746H2.37188V6.23711H4.74687V13.8746ZM3.55938 5.19648C2.79688 5.19648 2.18125 4.58086 2.18125 3.82148C2.18125 3.06211 2.79688 2.44648 3.55938 2.44648C4.31875 2.44648 4.93437 3.06211 4.93437 3.82148C4.93437 4.57773 4.31875 5.19648 3.55938 5.19648ZM13.6344 13.8746H11.2625V10.1621C11.2625 9.27773 11.2469 8.13711 10.0281 8.13711C8.79375 8.13711 8.60625 9.10273 8.60625 10.0996V13.8746H6.2375V6.23711H8.5125V7.28086H8.54375C8.85938 6.68086 9.63438 6.04648 10.7875 6.04648C13.1906 6.04648 13.6344 7.62773 13.6344 9.68398V13.8746Z" fill="white"/>
</svg>
