<svg width="161" height="50" viewBox="0 0 161 50" fill="none" xmlns="http://www.w3.org/2000/svg">
<path d="M13.1022 42.0409C13.1022 43.3965 12.6452 44.5554 11.8181 45.3863C10.447 46.7638 8.61874 46.8512 6.39876 46.8512C5.3323 46.8512 4.3529 46.8294 3.22115 46.8075V37.2743C4.3529 37.2525 5.3323 37.2525 6.39876 37.2525C8.61874 37.2525 10.447 37.3181 11.8181 38.6956C12.6452 39.5264 13.1022 40.6853 13.1022 42.0409ZM16.454 42.0409C16.454 40.0949 15.7575 38.1708 14.5169 36.9245C12.5364 34.9348 10.0987 34.2788 6.44229 34.2788C4.41819 34.2788 2.24174 34.3225 0 34.3881V49.6937C2.24174 49.7593 4.41819 49.803 6.44229 49.803C10.0987 49.803 12.5364 49.1689 14.5169 47.1573C15.7575 45.911 16.454 43.9869 16.454 42.0409Z" fill="#0000FF"/>
<path d="M37.5876 42.0409C37.5876 37.646 34.1488 34.082 28.3812 34.082C22.6137 34.082 19.1749 37.646 19.1749 42.0409C19.1749 46.4358 22.6137 49.9998 28.3812 49.9998C34.1488 49.9998 37.5876 46.4358 37.5876 42.0409ZM28.3812 36.9901C31.7983 36.9901 34.2359 38.9798 34.2359 42.0409C34.2359 45.102 31.7983 47.0917 28.3812 47.0917C24.9425 47.0917 22.5048 45.102 22.5048 42.0409C22.5048 38.9798 24.9425 36.9901 28.3812 36.9901Z" fill="#0000FF"/>
<path d="M56.0183 36.2904C54.4294 34.9348 52.1877 34.082 49.4018 34.082C43.6343 34.082 40.1955 37.646 40.1955 42.0409C40.1955 46.4358 43.6343 49.9998 49.4018 49.9998C51.9701 49.9998 54.4077 49.1689 56.1488 47.6602L54.5383 45.2551C52.9277 46.4795 51.4042 47.0917 49.4018 47.0917C45.9848 47.0917 43.5254 45.102 43.5254 42.0409C43.5254 38.9798 45.9848 36.9901 49.4018 36.9901C51.0559 36.9901 52.9712 37.4711 54.3642 38.7612L56.0183 36.2904Z" fill="#0000FF"/>
<path d="M66.8422 34.2351H63.7081L55.7205 49.6937H59.1811L60.574 46.9168H69.9327L70.8468 48.7097C71.3039 49.6281 71.7174 49.6937 72.9145 49.6937H74.8297L66.8422 34.2351ZM62.0322 44.0306L65.2534 37.6023L68.4745 44.0306H62.0322Z" fill="#0000FF"/>
<path d="M80.0133 45.1239C80.7968 45.1239 81.8415 45.1457 82.5162 45.1457C87.3697 45.1457 90.9173 43.9432 90.9173 39.6358C90.9173 35.7875 87.9355 34.2788 82.2985 34.2788C80.4703 34.2788 78.4027 34.3444 76.7921 34.3881V49.6937H80.0133V45.1239ZM80.0133 42.1721V37.2743C80.7968 37.2525 81.6456 37.2525 82.3203 37.2525C84.8232 37.2525 86.1726 37.3399 87.065 38.2364C87.3697 38.5425 87.5873 39.111 87.5873 39.6139C87.5873 40.3354 87.3697 40.8383 86.9562 41.2756C86.0203 42.2158 84.2356 42.194 82.3203 42.194C81.6456 42.194 80.7968 42.1721 80.0133 42.1721Z" fill="#0000FF"/>
<path d="M111.51 42.0409C111.51 37.646 108.072 34.082 102.304 34.082C96.5364 34.082 93.0976 37.646 93.0976 42.0409C93.0976 46.4358 96.5364 49.9998 102.304 49.9998C108.072 49.9998 111.51 46.4358 111.51 42.0409ZM102.304 36.9901C105.721 36.9901 108.159 38.9798 108.159 42.0409C108.159 45.102 105.721 47.0917 102.304 47.0917C98.8652 47.0917 96.4276 45.102 96.4276 42.0409C96.4276 38.9798 98.8652 36.9901 102.304 36.9901Z" fill="#0000FF"/>
<path d="M126.306 38.3894L127.96 35.9187C126.306 34.8036 123.455 34.082 121.344 34.082C117.47 34.082 114.466 36.1373 114.466 38.9798C114.466 44.3367 124.783 42.4782 124.783 45.5393C124.783 46.8075 122.933 47.2667 121.366 47.2667C119.233 47.2667 116.795 46.5232 115.294 45.3425L113.639 47.8133C115.664 49.2126 118.798 49.9998 121.083 49.9998C124.935 49.9998 128.135 48.2069 128.135 45.1895C128.135 39.7451 117.796 41.3194 117.796 38.4988C117.796 37.3837 119.255 36.8152 121.279 36.8152C122.824 36.8152 125.022 37.4055 126.306 38.3894Z" fill="#0000FF"/>
<path d="M144.863 34.3881H130.02V37.3399H135.831V49.6937H139.052V37.3399H144.863V34.3881Z" fill="#0000FF"/>
<path d="M147.484 34.3881V48.6004C147.484 49.2345 147.876 49.6937 148.594 49.6937H161V46.7419H150.705V43.3528H159.89V40.401H150.705V37.3399H160.717V34.3881H147.484Z" fill="#0000FF"/>
<path d="M87.2803 15.1191C88.3584 15.1193 89.2314 16.0228 89.2314 17.1367C89.2312 18.2496 88.3582 19.1521 87.2803 19.1523H63.8145C62.7375 19.1521 61.8635 18.2496 61.8633 17.1367C61.8633 16.0228 62.7374 15.1194 63.8145 15.1191H87.2803ZM97.5254 7.55859C98.6036 7.55859 99.4775 8.46214 99.4775 9.57617C99.4775 10.6892 98.6037 11.5928 97.5254 11.5928H74.0605C72.9832 11.5927 72.1094 10.6892 72.1094 9.57617C72.1094 8.46217 72.9832 7.55864 74.0605 7.55859H97.5254ZM91.0791 0C92.1572 0.000188866 93.0303 0.903634 93.0303 2.01758C93.0302 3.13058 92.1572 4.03399 91.0791 4.03418H67.6133C66.5361 4.03393 65.6622 3.13054 65.6621 2.01758C65.6621 0.903674 66.5361 0.000253743 67.6133 0H91.0791Z" fill="#0000FF"/>
</svg>
