<svg width="83" height="61" viewBox="0 0 83 61" fill="none" xmlns="http://www.w3.org/2000/svg">
<path fill-rule="evenodd" clip-rule="evenodd" d="M3.17104 2.23109C2.54752 1.49307 1.34372 1.98061 1.40949 2.94452L4.34614 45.9873C4.37605 46.4257 4.68859 46.7932 5.11647 46.8931L57.8401 59.2018C58.2637 59.3007 58.7027 59.1144 58.9259 58.7411L81.1369 21.5781C81.6342 20.7461 80.7755 19.7641 79.8846 20.146L54.3307 31.099L44.0935 3.9038C43.8437 3.24025 43.0019 3.04019 42.4803 3.52043L20.9828 23.3136L3.17104 2.23109ZM42.3776 7.5387L20.7219 27.4775L4.68115 8.4912L7.13102 44.3992L57.1549 56.0777L75.6747 25.0909L52.6929 34.9415L42.3776 7.5387Z" fill="#C0CAD1"/>
<path d="M41.8024 2.78507C42.8456 1.82464 44.5295 2.22445 45.0291 3.5514L54.8977 29.7676L79.4907 19.2272C81.2726 18.4635 82.9896 20.4272 81.995 22.0913L59.784 59.2541C59.3376 60.0008 58.4596 60.3729 57.6124 60.1752L4.88953 47.8666C4.0339 47.6668 3.40873 46.9323 3.34875 46.0558L0.411914 3.01294C0.280387 1.08513 2.68796 0.110076 3.935 1.58611L21.0729 21.8709L41.8024 2.78507ZM44.0935 3.9038C43.8437 3.24025 43.0019 3.04019 42.4803 3.52043L20.9828 23.3136L3.17104 2.23109C2.54752 1.49307 1.34372 1.98061 1.40949 2.94452L4.34614 45.9873C4.37605 46.4257 4.68859 46.7932 5.11647 46.8931L57.8401 59.2018C58.2637 59.3007 58.7027 59.1144 58.9259 58.7411L81.1369 21.5781C81.6342 20.7461 80.7755 19.7641 79.8846 20.146L54.3307 31.099L44.0935 3.9038ZM52.6929 34.9415L75.6747 25.0909L57.1549 56.0777L7.13102 44.3992L4.68115 8.4912L20.7219 27.4775L42.3776 7.5387L52.6929 34.9415ZM20.6316 28.92L5.88617 11.4671L8.07819 43.5939L56.6709 54.9382L73.2335 27.224L52.1256 36.2725L41.9634 9.27781L20.6316 28.92Z" fill="#C0CAD1"/>
</svg>
