<svg width="41" height="55" viewBox="0 0 41 55" fill="none" xmlns="http://www.w3.org/2000/svg">
<g clip-path="url(#clip0_164_867)">
<path d="M11.5044 17.5942L11.1035 24.4582V25.1206L11.2692 25.059L16.5219 20.4347L16.5671 20.0712L16.3892 20.2286V20.2317L11.3216 24.6923L11.7409 17.5853V17.5634L9.37728 10.1338L9.36871 10.1071L2.1559 2.71497L1.00929 1.54049L1.03457 1.557L0.273926 0.771484V1.12833L9.16241 10.2329L11.5044 17.5942Z" fill="#52525B"/>
<path d="M30.9065 33.9109L30.865 33.6067L30.8704 33.4965L26.5002 41.0536L26.2294 30.1827L29.0842 31.7943L29.2711 31.6712L29.4837 31.5311L30.8303 30.6439L30.5544 28.7968L27.7349 28.3061L30.9932 25.7904L30.7901 25.6391L27.4699 28.2102L20.8557 19.9314L20.2806 19.3301L19.928 19.5558L13.014 28.2053L9.89923 25.5669L9.66222 25.6931L9.68119 25.7078L9.68796 25.6989L9.90645 25.8836L12.7585 28.299L11.2833 28.5354L9.46947 28.8258L9.31689 30.7885L11.2025 32.0303L14.162 30.2942V41.104L9.43065 34.3601L9.36339 34.679L14.1485 41.4975L12.2588 46.2105L12.3974 46.508L14.3128 41.7312L14.4031 41.543L16.0525 40.3658H20.1221V50.7987L18.4821 51.7136H15.2481L15.7691 51.95H18.5412L20.1212 51.1136V53.9274L20.3605 53.8243V51.1136L21.6461 51.95H24.7158L25.2656 51.7136H21.7197L20.3618 50.7987L20.3654 47.8244L20.3623 42.0756L20.3717 42.072V40.364H24.9045L26.2723 41.5354L26.3626 41.7669L28.0856 46.786L28.235 46.4849L26.5196 41.4926L30.9065 33.9109ZM28.7492 29.4601C28.8641 29.4601 28.9764 29.4938 29.072 29.5568C29.1675 29.6199 29.242 29.7096 29.286 29.8145C29.3299 29.9194 29.3414 30.0348 29.319 30.1462C29.2966 30.2575 29.2413 30.3598 29.16 30.4401C29.0788 30.5204 28.9752 30.5751 28.8625 30.5972C28.7498 30.6194 28.633 30.608 28.5269 30.5646C28.4207 30.5211 28.33 30.4475 28.2661 30.3531C28.2023 30.2587 28.1682 30.1477 28.1682 30.0342C28.1682 29.8819 28.2294 29.7359 28.3384 29.6282C28.4474 29.5206 28.5951 29.4601 28.7492 29.4601ZM11.7424 30.6083C11.6263 30.6083 11.5129 30.5742 11.4163 30.5105C11.3198 30.4468 11.2446 30.3562 11.2002 30.2503C11.1558 30.1443 11.1442 30.0277 11.1668 29.9152C11.1894 29.8028 11.2453 29.6994 11.3274 29.6183C11.4095 29.5372 11.5141 29.482 11.6279 29.4596C11.7417 29.4373 11.8597 29.4488 11.967 29.4926C12.0742 29.5365 12.1658 29.6108 12.2303 29.7062C12.2948 29.8016 12.3292 29.9137 12.3292 30.0284C12.3292 30.1045 12.314 30.1799 12.2846 30.2503C12.2551 30.3206 12.2118 30.3846 12.1573 30.4384C12.1028 30.4923 12.0382 30.535 11.967 30.5641C11.8958 30.5932 11.8194 30.6083 11.7424 30.6083ZM20.1207 40.1276H15.9722L14.4012 41.2486V30.1667L20.1203 28.0702L20.1207 40.1276ZM20.1207 27.8164L14.4017 29.9128L13.1978 28.3579L20.1207 19.695V27.8164ZM20.36 19.6927L27.2388 28.3017L26.4262 29.4124L26.07 29.8397L25.9797 29.8174L20.3609 27.815L20.36 19.6927ZM24.9943 40.1263H20.36V28.0688L25.9852 30.0734L26.2646 41.2156L24.9943 40.1263Z" fill="#52525B"/>
<path d="M40.5389 0.742845L39.7981 1.50115L38.4163 2.91204L38.2308 3.10116L31.0166 10.4683L30.9959 10.4897L28.8227 17.9576L28.8173 17.9768L29.1432 24.4032L24.6742 20.617L23.9068 20.0175L23.8413 20.2236L29.1609 24.7288V24.7435L29.3604 24.8528V23.9487L29.0588 18.0045L31.2099 10.6124L39.1097 2.54359L40.4956 1.12824V1.14519L40.7348 0.903427V0.543457L40.5389 0.742845Z" fill="#52525B"/>
<path d="M12.2525 30.024C12.2525 30.1273 12.2215 30.2283 12.1634 30.3142C12.1053 30.4001 12.0228 30.467 11.9262 30.5066C11.8296 30.5461 11.7233 30.5565 11.6207 30.5363C11.5182 30.5161 11.424 30.4664 11.3501 30.3933C11.2762 30.3203 11.2258 30.2272 11.2054 30.1259C11.185 30.0246 11.1955 29.9196 11.2355 29.8241C11.2755 29.7287 11.3433 29.6471 11.4302 29.5897C11.5171 29.5323 11.6193 29.5017 11.7239 29.5017C11.8641 29.5017 11.9985 29.5567 12.0977 29.6546C12.1968 29.7526 12.2525 29.8855 12.2525 30.024ZM9.2072 28.8714L9.07178 30.673L11.1885 32.0286L14.3936 30.1551L14.3895 29.916L13.1856 28.3606L13.005 28.2063L9.2072 28.8714ZM20.3528 47.7923L25.5893 43.6984L25.0647 41.3133L24.9383 41.3553C23.5032 41.8524 21.9897 42.092 20.4692 42.0627L20.3618 42.0591L20.1122 42.0685C18.5656 42.0786 17.0279 41.8375 15.5605 41.3548L15.4341 41.3129L14.9095 43.6979L20.1126 47.7919L20.3528 47.7923Z" fill="#52525B"/>
<path d="M30.8255 28.9709L30.653 28.8037L27.4502 28.1868L27.2209 28.2827L26.0531 29.8439L25.9673 30.079L29.064 31.8262L31.0823 30.4764L30.8255 28.9709ZM28.7277 30.5732C28.6216 30.5748 28.5174 30.5451 28.4284 30.488C28.3393 30.4309 28.2695 30.3489 28.2278 30.2525C28.186 30.1561 28.1743 30.0495 28.194 29.9465C28.2137 29.8434 28.264 29.7485 28.3385 29.6738C28.413 29.599 28.5082 29.5479 28.6122 29.5269C28.7162 29.5058 28.8242 29.5158 28.9224 29.5555C29.0206 29.5953 29.1046 29.663 29.1638 29.7501C29.2229 29.8372 29.2545 29.9397 29.2546 30.0446C29.2551 30.1135 29.2419 30.1818 29.2157 30.2457C29.1895 30.3095 29.1509 30.3676 29.1019 30.4167C29.053 30.4658 28.9948 30.5049 28.9306 30.5317C28.8664 30.5586 28.7974 30.5727 28.7277 30.5732Z" fill="#52525B"/>
<path d="M40.3549 0.989516L30.0476 7.5912L27.28 15.7956L23.8158 20.051L20.3628 19.3328V19.3302L20.2446 19.3052L20.0374 19.3578L16.6612 20.2134L13.6818 15.9834L10.1499 7.40029L0.223145 0.861053V11.4621L9.17708 26.1375L8.27921 27.3418L9.36036 28.4101L9.21997 30.2595L9.19379 30.6052L9.07867 32.1218V32.1365L9.36352 33.7308L8.55683 38.4144L8.55051 38.4501L12.2115 46.3404V46.3449L15.1277 51.7235L20.2509 53.9957L20.3638 53.9444V53.9399L24.9335 51.8952L25.3172 51.7235H25.3249L25.3732 51.7025L28.2772 46.6317V46.6277L32.0506 39.0157L31.0399 33.4979L31.4132 31.6521L31.0037 30.4375L30.8823 29.7581L30.7469 28.9682L32.3977 27.1451L31.0498 25.6227L33.6762 20.8048L40.5495 11.2774V0.791016L40.3549 0.989516Z" stroke="#52525B" stroke-miterlimit="10"/>
<path d="M11.2131 24.8274L9.24219 25.9309L9.31216 26.1749L11.1707 25.1124L11.2131 24.8274Z" fill="#52525B"/>
<path d="M29.3578 24.8525L30.9919 25.7892V25.5015L29.1411 24.4028L29.3578 24.8525Z" fill="#52525B"/>
</g>
<defs>
<clipPath id="clip0_164_867">
<rect width="40.7755" height="54" fill="white" transform="translate(0 0.240234)"/>
</clipPath>
</defs>
</svg>
