<svg width="2560" height="1280" viewBox="0 0 2560 1280" fill="none" xmlns="http://www.w3.org/2000/svg">
<rect width="2560" height="1280" fill="#112434"/>
<path d="M0 88.5537L725.181 1280H0V88.5537Z" fill="#2F5979"/>
<path d="M0 1020.38L158 1280H0V1020.38Z" fill="#356385"/>
<path d="M517.333 0L1293.87 1271.95L724.266 1275.97L0 88.5535V0H517.333Z" fill="#2C506B"/>
<path d="M1083.97 0L1860.5 1271.95L1290.9 1275.97L517.402 0H566.633H1083.97Z" fill="#234661"/>
<path d="M1083.97 0L1860.5 1271.95L1290.9 1275.97L517.402 0H566.633H1083.97Z" fill="#234661"/>
<path d="M1646.04 0L2420.67 1280H1857.33L1079.47 0H1128.7H1646.04Z" fill="#173851"/>
<path d="M2560 569.091V1279.01L2420.5 1280L1646.48 0H2213.43L2560 569.091Z" fill="#102E44"/>
<path d="M517.313 0L1289.04 1280H724.238L0 88.8328V0H517.313Z" fill="#2C506B"/>
<path d="M1082.59 0L1857.33 1280H1289.05L517.333 0H566.45H1082.59Z" fill="#234661"/>
<path d="M1082.59 0L1857.33 1280H1289.05L517.333 0H566.45H1082.59Z" fill="#234661"/>
</svg>
