<svg width="600" height="600" viewBox="0 0 600 600" fill="none" xmlns="http://www.w3.org/2000/svg">
<rect width="600" height="600" fill="#112434"/>
<path d="M0 41.5096L169.964 600H0V41.5096Z" fill="#2F5979"/>
<path d="M0 478.302L37.0312 600H0V478.302Z" fill="#356385"/>
<path d="M121.25 0L303.25 596.226L169.75 598.113L0 41.5094V0H121.25Z" fill="#2C506B"/>
<path d="M254.054 0L436.054 596.226L302.554 598.113L121.266 0H132.804H254.054Z" fill="#234661"/>
<path d="M254.054 0L436.054 596.226L302.554 598.113L121.266 0H132.804H254.054Z" fill="#234661"/>
<path d="M385.788 0L567.343 600H435.311L253 0H264.538H385.788Z" fill="#173851"/>
<path d="M600 266.759V599.536L567.305 600L385.895 0H518.772L600 266.759Z" fill="#102E44"/>
<path d="M121.245 0L302.119 600H169.743L0 41.6404V0H121.245Z" fill="#2C506B"/>
<path d="M253.732 0L435.312 600H302.12L121.25 0H132.762H253.732Z" fill="#234661"/>
<path d="M253.732 0L435.312 600H302.12L121.25 0H132.762H253.732Z" fill="#234661"/>
</svg>
