<svg width="1920" height="1080" viewBox="0 0 1920 1080" fill="none" xmlns="http://www.w3.org/2000/svg">
<rect width="1920" height="1080" fill="#112434"/>
<path d="M0 74.7173L543.886 1080H0V74.7173Z" fill="#2F5979"/>
<path d="M0 860.943L118.5 1080H0V860.943Z" fill="#356385"/>
<path d="M388 0L970.4 1073.21L543.2 1076.6L0 74.717V0H388Z" fill="#2C506B"/>
<path d="M812.975 0L1395.38 1073.21L968.175 1076.6L388.052 0H424.975H812.975Z" fill="#234661"/>
<path d="M812.975 0L1395.38 1073.21L968.175 1076.6L388.052 0H424.975H812.975Z" fill="#234661"/>
<path d="M1234.53 0L1815.5 1080H1393L809.604 0H846.526H1234.53Z" fill="#173851"/>
<path d="M1920 480.171V1079.17L1815.37 1080L1234.86 0H1660.07L1920 480.171Z" fill="#102E44"/>
<path d="M387.984 0L966.78 1080H543.178L0 74.9527V0H387.984Z" fill="#2C506B"/>
<path d="M811.943 0L1393 1080H966.785L388 0H424.838H811.943Z" fill="#234661"/>
<path d="M811.943 0L1393 1080H966.785L388 0H424.838H811.943Z" fill="#234661"/>
</svg>
