<svg width="1921" height="1081" viewBox="0 0 1921 1081" fill="none" xmlns="http://www.w3.org/2000/svg">
<path d="M0.5 861.172L0 75.5L543 1079.5L118.001 1079.5L0.5 861.172Z" fill="url(#paint0_linear_357_1105)"/>
<path d="M1660.5 1L1920 0V481.5L1660.5 1Z" fill="url(#paint1_linear_357_1105)"/>
<path d="M1236 1H1660.5L1920 481.5L1920.5 1080.5L1815 1079L1236 1Z" fill="url(#paint2_linear_357_1105)"/>
<path d="M0 75.5V0H388.5L965.5 1079L540.001 1077L0 75.5Z" fill="url(#paint3_linear_357_1105)"/>
<path d="M388 0H811L1392.2 1079.5L965.5 1079L388 0Z" fill="url(#paint4_linear_357_1105)"/>
<path d="M811 0H1235.51L1815 1078.5L1392 1079.5L811 0Z" fill="url(#paint5_linear_357_1105)"/>
<path d="M0.5 1079.5V861.169L118 1079.5H86H0.5Z" fill="url(#paint6_linear_357_1105)"/>
<rect y="462" width="1920" height="618" fill="url(#paint7_linear_357_1105)"/>
<defs>
<linearGradient id="paint0_linear_357_1105" x1="215.941" y1="624.504" x2="-26.4106" y2="752.546" gradientUnits="userSpaceOnUse">
<stop offset="0.43" stop-color="#112F45"/>
<stop offset="1" stop-color="#20435C"/>
</linearGradient>
<linearGradient id="paint1_linear_357_1105" x1="1986.94" y1="170.502" x2="1744.59" y2="298.545" gradientUnits="userSpaceOnUse">
<stop offset="0.31" stop-color="#112F45"/>
<stop offset="1" stop-color="#15354D"/>
</linearGradient>
<linearGradient id="paint2_linear_357_1105" x1="1792.44" y1="362.504" x2="1550.09" y2="490.546" gradientUnits="userSpaceOnUse">
<stop offset="0.43" stop-color="#112F45"/>
<stop offset="1" stop-color="#15354D"/>
</linearGradient>
<linearGradient id="paint3_linear_357_1105" x1="584" y1="644" x2="397.136" y2="751.524" gradientUnits="userSpaceOnUse">
<stop offset="0.433842" stop-color="#112F45"/>
<stop offset="1" stop-color="#15354D"/>
</linearGradient>
<linearGradient id="paint4_linear_357_1105" x1="1010" y1="646" x2="823.136" y2="753.524" gradientUnits="userSpaceOnUse">
<stop offset="0.433842" stop-color="#112F45"/>
<stop offset="1" stop-color="#15354D"/>
</linearGradient>
<linearGradient id="paint5_linear_357_1105" x1="1433.69" y1="646.201" x2="1246.92" y2="753.67" gradientUnits="userSpaceOnUse">
<stop offset="0.433842" stop-color="#112F45"/>
<stop offset="1" stop-color="#15354D"/>
</linearGradient>
<linearGradient id="paint6_linear_357_1105" x1="165.441" y1="676.504" x2="-76.9108" y2="804.547" gradientUnits="userSpaceOnUse">
<stop offset="0.308084" stop-color="#112F45"/>
<stop offset="1" stop-color="#20435C"/>
</linearGradient>
<linearGradient id="paint7_linear_357_1105" x1="1056.25" y1="462" x2="1043.39" y2="1110.31" gradientUnits="userSpaceOnUse">
<stop stop-color="#112F45" stop-opacity="0"/>
<stop offset="0.408654" stop-color="#112F45" stop-opacity="0.553061"/>
<stop offset="0.738895" stop-color="#112F45"/>
</linearGradient>
</defs>
</svg>
