<svg width="768" height="550" viewBox="0 0 768 550" fill="none" xmlns="http://www.w3.org/2000/svg">
<path d="M0 550V439L47.9688 550H34.9049H0Z" fill="url(#paint0_linear_408_914)"/>
<path d="M0 439.097V38.5L217.858 549.999L47.1864 549.999L0 439.097Z" fill="url(#paint1_linear_408_914)"/>
<path d="M0 38.5V0H155.02L388.247 550H217.858L0 38.5Z" fill="url(#paint2_linear_408_914)"/>
<path d="M154.898 0H324.543L557.636 550H388.247L154.898 0Z" fill="url(#paint3_linear_408_914)"/>
<path d="M324.289 0H493.525L726.527 550H557.637L324.289 0Z" fill="url(#paint4_linear_408_914)"/>
<path d="M673.062 0H768.001V249L673.062 0Z" fill="url(#paint5_linear_408_914)"/>
<path d="M493.52 0H673.402L767.494 246V550H726.521L493.52 0Z" fill="url(#paint6_linear_408_914)"/>
<rect y="307" width="766" height="243" fill="url(#paint7_linear_408_914)"/>
<defs>
<linearGradient id="paint0_linear_408_914" x1="67.3364" y1="346.962" x2="-39.6179" y2="392.75" gradientUnits="userSpaceOnUse">
<stop offset="0.308084" stop-color="white"/>
<stop offset="1" stop-color="#F3F3F3"/>
</linearGradient>
<linearGradient id="paint1_linear_408_914" x1="86.5174" y1="318.878" x2="-19.4813" y2="363.151" gradientUnits="userSpaceOnUse">
<stop offset="0.308084" stop-color="white"/>
<stop offset="1" stop-color="#F3F3F3"/>
</linearGradient>
<linearGradient id="paint2_linear_408_914" x1="233.531" y1="328.267" x2="150.81" y2="365.672" gradientUnits="userSpaceOnUse">
<stop offset="0.433842" stop-color="white"/>
<stop offset="1" stop-color="#F3F3F3"/>
</linearGradient>
<linearGradient id="paint3_linear_408_914" x1="404.352" y1="329.134" x2="321.578" y2="366.625" gradientUnits="userSpaceOnUse">
<stop offset="0.433842" stop-color="white"/>
<stop offset="1" stop-color="#F3F3F3"/>
</linearGradient>
<linearGradient id="paint4_linear_408_914" x1="572.951" y1="328.039" x2="490.444" y2="365.459" gradientUnits="userSpaceOnUse">
<stop offset="0.433842" stop-color="white"/>
<stop offset="1" stop-color="#F3F3F3"/>
</linearGradient>
<linearGradient id="paint5_linear_408_914" x1="861.06" y1="95.4417" x2="721.247" y2="169.205" gradientUnits="userSpaceOnUse">
<stop offset="0.308084" stop-color="white"/>
<stop offset="1" stop-color="#F3F3F3"/>
</linearGradient>
<linearGradient id="paint6_linear_408_914" x1="729.482" y1="153.464" x2="626.877" y2="207.679" gradientUnits="userSpaceOnUse">
<stop offset="0.308084" stop-color="white"/>
<stop offset="1" stop-color="#F3F3F3"/>
</linearGradient>
<linearGradient id="paint7_linear_408_914" x1="377.947" y1="309.292" x2="371.271" y2="538.669" gradientUnits="userSpaceOnUse">
<stop stop-color="white" stop-opacity="0"/>
<stop offset="0.738895" stop-color="white"/>
</linearGradient>
</defs>
</svg>
