<svg width="50" height="66" viewBox="0 0 50 66" fill="none" xmlns="http://www.w3.org/2000/svg">
<path d="M14.2684 21.8218L13.7884 30.0403V30.8334L13.9868 30.7597L20.276 25.2228L20.3301 24.7876L20.1171 24.9761V24.9798L14.0495 30.3206L14.5516 21.8111V21.785L11.7215 12.8893L11.7113 12.8572L3.07513 4.00644L1.70225 2.6002L1.73252 2.61996L0.821777 1.67944V2.10671L11.4642 13.0079L14.2684 21.8218Z" fill="white"/>
<path d="M37.4994 41.3584L37.4497 40.9942L37.4562 40.8623L32.2236 49.9107L31.8993 36.8946L35.3174 38.8242L35.5412 38.6768L35.7958 38.5091L37.4081 37.4468L37.0778 35.2352L33.7018 34.6477L37.6032 31.6355L37.36 31.4544L33.3846 34.5329L25.4652 24.6203L24.7766 23.9004L24.3544 24.1706L16.0761 34.527L12.3467 31.3679L12.0629 31.5191L12.0856 31.5367L12.0937 31.526L12.3553 31.7471L15.7702 34.6392L14.0038 34.9222L11.8321 35.2699L11.6494 37.6199L13.9071 39.1068L17.4506 37.0281V49.9711L11.7856 41.8963L11.7051 42.2781L17.4344 50.4421L15.1719 56.0852L15.3378 56.4415L17.6311 50.722L17.7392 50.4966L19.7142 49.0872H24.5868V61.5788L22.6232 62.6742H18.7511L19.3748 62.9573H22.694L24.5858 61.9559V65.3248L24.8722 65.2015V61.9559L26.4116 62.9573H30.087L30.7453 62.6742H26.4997L24.8739 61.5788L24.8782 58.0175L24.8744 51.1343L24.8857 51.13V49.085H30.3129L31.9506 50.4875L32.0587 50.7647L34.1218 56.7742L34.3007 56.4137L32.2468 50.4362L37.4994 41.3584ZM34.9164 36.0294C35.0539 36.0294 35.1884 36.0697 35.3028 36.1452C35.4172 36.2207 35.5064 36.3281 35.559 36.4537C35.6117 36.5793 35.6255 36.7175 35.5986 36.8508C35.5718 36.9842 35.5055 37.1067 35.4082 37.2028C35.3109 37.2989 35.187 37.3644 35.0521 37.3909C34.9171 37.4174 34.7773 37.4038 34.6501 37.3518C34.523 37.2998 34.4144 37.2117 34.338 37.0986C34.2615 36.9856 34.2207 36.8527 34.2207 36.7167C34.2207 36.5344 34.294 36.3596 34.4245 36.2307C34.5549 36.1018 34.7319 36.0294 34.9164 36.0294ZM14.5535 37.4041C14.4145 37.4041 14.2787 37.3634 14.1632 37.2871C14.0476 37.2108 13.9575 37.1024 13.9044 36.9755C13.8512 36.8486 13.8373 36.709 13.8644 36.5744C13.8915 36.4397 13.9584 36.316 14.0567 36.2189C14.1549 36.1218 14.2801 36.0556 14.4164 36.0288C14.5527 36.0021 14.694 36.0158 14.8224 36.0684C14.9508 36.1209 15.0606 36.2099 15.1378 36.3241C15.215 36.4382 15.2562 36.5725 15.2562 36.7098C15.2562 36.801 15.238 36.8913 15.2027 36.9755C15.1674 37.0597 15.1156 37.1363 15.0504 37.2008C14.9851 37.2652 14.9077 37.3164 14.8224 37.3513C14.7372 37.3861 14.6458 37.4041 14.5535 37.4041ZM24.5852 48.802H19.618L17.7371 50.1441V36.8754L24.5847 34.3652L24.5852 48.802ZM24.5852 34.0613L17.7376 36.5715L16.2961 34.7097L24.5852 24.3373V34.0613ZM24.8717 24.3346L33.1078 34.6424L32.1349 35.9722L31.7085 36.4839L31.6004 36.4572L24.8728 34.0597L24.8717 24.3346ZM30.4205 48.8003H24.8717V34.3636L31.6069 36.7637L31.9414 50.1046L30.4205 48.8003Z" fill="white"/>
<path d="M49.0326 1.64547L48.1457 2.55341L46.4912 4.24271L46.269 4.46916L37.6313 13.2901L37.6064 13.3157L35.0045 22.2573L34.998 22.2803L35.3882 29.9748L30.0373 25.4415L29.1184 24.7237L29.04 24.9704L35.4093 30.3647V30.3823L35.6482 30.5131V29.4305L35.2872 22.3134L37.8626 13.4626L47.3214 3.80156L48.9807 2.10692V2.12721L49.2672 1.83774V1.40674L49.0326 1.64547Z" fill="white"/>
<path d="M15.1638 36.7047C15.1638 36.8284 15.1267 36.9493 15.0572 37.0522C14.9876 37.155 14.8888 37.2352 14.7731 37.2825C14.6575 37.3298 14.5302 37.3422 14.4074 37.3181C14.2847 37.294 14.1719 37.2344 14.0834 37.1469C13.9948 37.0595 13.9346 36.948 13.9101 36.8267C13.8857 36.7054 13.8983 36.5797 13.9462 36.4654C13.9941 36.3511 14.0752 36.2534 14.1793 36.1847C14.2834 36.116 14.4057 36.0793 14.5309 36.0793C14.6988 36.0793 14.8598 36.1452 14.9784 36.2625C15.0971 36.3798 15.1638 36.5388 15.1638 36.7047ZM11.5176 35.3246L11.3555 37.4818L13.8899 39.1049L17.7274 36.8617L17.7226 36.5755L16.281 34.7131L16.0648 34.5283L11.5176 35.3246ZM24.8626 57.9793L31.1324 53.0775L30.5043 50.2218L30.353 50.272C28.6347 50.8672 26.8225 51.1541 25.002 51.1191L24.8734 51.1148L24.5745 51.126C22.7228 51.1381 20.8816 50.8494 19.1246 50.2714L18.9733 50.2212L18.3452 53.077L24.575 57.9788L24.8626 57.9793Z" fill="white"/>
<path d="M37.4018 35.4438L37.1954 35.2435L33.3605 34.5049L33.0859 34.6197L31.6877 36.489L31.585 36.7705L35.2928 38.8625L37.7094 37.2463L37.4018 35.4438ZM34.8901 37.3622C34.763 37.3641 34.6383 37.3286 34.5317 37.2603C34.4251 37.1919 34.3415 37.0937 34.2915 36.9783C34.2415 36.8628 34.2274 36.7353 34.251 36.6119C34.2746 36.4885 34.3349 36.3748 34.4241 36.2853C34.5132 36.1958 34.6273 36.1346 34.7518 36.1094C34.8763 36.0842 35.0056 36.0962 35.1232 36.1438C35.2408 36.1914 35.3414 36.2725 35.4122 36.3767C35.4831 36.481 35.5209 36.6038 35.5209 36.7293C35.5216 36.8118 35.5057 36.8936 35.4744 36.9701C35.443 37.0465 35.3968 37.1161 35.3382 37.1749C35.2796 37.2337 35.2099 37.2804 35.133 37.3126C35.0561 37.3447 34.9736 37.3616 34.8901 37.3622Z" fill="white"/>
<path d="M48.8118 1.9408L36.4706 9.84521L33.1567 19.6686L29.0089 24.7637L24.8747 23.9038V23.9006L24.733 23.8707L24.485 23.9337L20.4425 24.9581L16.8752 19.8934L12.6464 9.61662L0.760742 1.78698V14.48L11.4816 32.0513L10.4065 33.4933L11.701 34.7724L11.5329 36.9867L11.5016 37.4006L11.3638 39.2165V39.2341L11.7048 41.1429L10.7389 46.7508L10.7314 46.7935L15.1148 56.2409V56.2462L18.6065 62.6862L24.7406 65.4068L24.8757 65.3454V65.34L30.3472 62.8918L30.8066 62.6862H30.8158L30.8737 62.6611L34.3507 56.5896V56.5848L38.8688 47.4707L37.6586 40.8641L38.1056 38.6541L37.6153 37.1998L37.4699 36.3864L37.3078 35.4405L39.2844 33.2577L37.6705 31.4349L40.8151 25.6663L49.0448 14.2589V1.70312L48.8118 1.9408Z" stroke="white" stroke-miterlimit="10"/>
<path d="M13.9199 30.4824L11.5601 31.8037L11.6438 32.0959L13.8691 30.8237L13.9199 30.4824Z" fill="white"/>
<path d="M35.6447 30.5127L37.6013 31.6343V31.2898L35.3853 29.9744L35.6447 30.5127Z" fill="white"/>
</svg>
