<svg width="94" height="29" viewBox="0 0 94 29" fill="none" xmlns="http://www.w3.org/2000/svg">
<path fill-rule="evenodd" clip-rule="evenodd" d="M7.48346 0.70708L5.97633 1.48022L2.53961 3.2524L1.81949 3.62511C0.678536 4.15848 0.366181 4.30527 0 4.25145L0.747042 5.91761C1.14095 6.66384 1.77871 6.8506 2.41728 6.54395L8.86908 3.15943V0L7.48346 0.706264V0.70708Z" fill="#EB3738"/>
<path fill-rule="evenodd" clip-rule="evenodd" d="M8.85521 15.5853C5.6232 14.7722 4.82233 14.3726 4.82233 13.1737V13.1199C4.82233 12.2269 5.65093 11.5215 7.22656 11.5215C8.8022 11.5215 10.4317 12.2008 12.0889 13.3336L14.2354 10.2949C12.3335 8.80242 10.0108 7.9624 7.28039 7.9624C3.45058 7.9624 0.733993 10.1619 0.733993 13.4934V13.5465C0.733993 17.1977 3.16514 18.2106 6.94112 19.1574C10.0647 19.9428 10.7171 20.4623 10.7171 21.4891V21.5421C10.7171 22.6219 9.69849 23.2743 8.01438 23.2743C5.88173 23.2743 4.11607 22.4082 2.43196 21.0487L0 23.9145C2.24112 25.8865 5.10696 26.8586 7.94588 26.8586C11.9796 26.8586 14.8185 24.8067 14.8185 21.1686V21.1025C14.7908 17.9039 12.6451 16.5583 8.85521 15.5853V15.5853Z" fill="#1AAEB7"/>
<path d="M85.7059 12.2535C81.2367 12.2535 77.9231 15.532 77.9231 19.569V19.6228C77.9231 23.6606 81.2097 26.8853 85.6512 26.8853C90.1204 26.8853 93.434 23.6068 93.434 19.5698V19.516C93.434 15.4921 90.1473 12.2535 85.7059 12.2535V12.2535ZM89.4272 19.6359C89.4272 21.7155 88.0416 23.4608 85.7059 23.4608C83.4647 23.4608 81.9299 21.6486 81.9299 19.5829V19.5307C81.9299 17.451 83.3155 15.7058 85.6512 15.7058C87.8923 15.7058 89.4272 17.5179 89.4272 19.5837V19.6367V19.6359Z" fill="#1AAEB7"/>
<path fill-rule="evenodd" clip-rule="evenodd" d="M37.7321 12.6817V11.5619C37.7321 10.5099 38.2623 10.0434 39.1993 10.0434C39.8925 10.0434 40.4626 10.1763 41.0465 10.39V7.08455C40.2995 6.84478 39.4432 6.68494 38.153 6.68494C36.7135 6.68494 35.6134 7.05846 34.8663 7.79082C34.1193 8.524 33.7115 9.65679 33.7115 11.2023V12.6547H32.0413V15.9332H33.7254V26.5802H37.7868V15.9332H43.423V26.5802H47.4845V12.6817H37.7321ZM58.2415 12.2551C56.1774 12.2551 54.9818 13.3349 54.0447 14.5077V12.5088H49.9833V26.5672H54.0447V18.7183C54.0447 16.8263 55.0364 15.8533 56.5852 15.8533C58.1331 15.8533 59.0432 16.8263 59.0432 18.7183V26.5672H63.1046V17.4657C63.1046 14.254 61.3113 12.2551 58.2415 12.2551V12.2551ZM72.2592 23.4624C70.045 23.4624 68.6186 21.7302 68.6186 19.5844V19.5323C68.6186 17.4526 70.0588 15.7073 72.0961 15.7073C73.5355 15.7073 74.4456 16.3068 75.3558 17.2536L77.8416 14.6276C76.5106 13.162 74.8265 12.269 72.123 12.269C67.7353 12.269 64.6118 15.5744 64.6118 19.5853V19.6383C64.6118 23.65 67.763 26.9015 72.0691 26.9015C74.935 26.9015 76.5383 25.8218 77.9231 24.3293L75.5458 21.9707C74.5549 22.8899 73.6171 23.4632 72.2592 23.4632V23.4624Z" fill="#1AAEB7"/>
<path fill-rule="evenodd" clip-rule="evenodd" d="M45.2166 11.4548C46.4391 11.4548 47.417 10.4819 47.417 9.29608C47.417 8.09723 46.4253 7.13733 45.2166 7.13733C43.9933 7.13733 43.0163 8.10946 43.0163 9.29608C43.0163 10.4819 43.9941 11.4548 45.2166 11.4548ZM23.2401 8.94948C19.1379 8.94948 16.082 11.9613 16.082 15.6786V15.7324C16.082 19.4505 19.111 22.4215 23.1854 22.4215C27.2877 22.4215 30.3435 19.4105 30.3435 15.6924V15.6386C30.3435 14.9592 30.235 14.2929 30.045 13.6797L26.6491 15.4657C26.6491 15.5326 26.6629 15.6125 26.6629 15.6786V15.7324C26.6629 17.6375 25.3858 19.2507 23.2401 19.2507C21.1751 19.2507 19.7765 17.5845 19.7765 15.6786V15.6255C19.7765 13.7204 21.0528 12.1073 23.1993 12.1073C23.6886 12.1073 24.1494 12.2011 24.5572 12.374L27.9939 10.6018C26.7575 9.56195 25.1142 8.94948 23.2393 8.94948H23.2401Z" fill="#1AAEB7"/>
<path fill-rule="evenodd" clip-rule="evenodd" d="M0 26.9016H13.189V28.5939H0V26.9016Z" fill="#004B44"/>
</svg>
