<svg width="22" height="22" viewBox="0 0 22 22" fill="none" xmlns="http://www.w3.org/2000/svg">
<path d="M13.0625 3.66666H8.9375C6.02068 3.66666 4.56228 3.66666 3.65614 4.58718C2.75 5.5077 2.75 6.98926 2.75 9.95237V12.0476C2.75 15.0107 2.75 16.4923 3.65614 17.4128C4.56228 18.3333 6.02068 18.3333 8.9375 18.3333H13.0625C15.9793 18.3333 17.4377 18.3333 18.3439 17.4128C19.25 16.4923 19.25 15.0107 19.25 12.0476V9.95237C19.25 6.98926 19.25 5.5077 18.3439 4.58718C17.4377 3.66666 15.9793 3.66666 13.0625 3.66666Z" stroke="white"/>
<path d="M6.4165 7.33334H9.1665" stroke="white" stroke-linecap="round"/>
<path d="M17.4167 14.6667H15.5833C14.8015 14.6667 14.4105 14.6667 14.1412 14.46C14.0719 14.4068 14.0098 14.3448 13.9566 14.2754C13.75 14.0061 13.75 13.6152 13.75 12.8333C13.75 12.0515 13.75 11.6605 13.9566 11.3912C14.0098 11.3219 14.0719 11.2598 14.1412 11.2066C14.4105 11 14.8015 11 15.5833 11H17.4167C18.1985 11 18.5895 11 18.8588 11.2066C18.9281 11.2598 18.9902 11.3219 19.0434 11.3912C19.25 11.6605 19.25 12.0515 19.25 12.8333C19.25 13.6152 19.25 14.0061 19.0434 14.2754C18.9902 14.3448 18.9281 14.4068 18.8588 14.46C18.5895 14.6667 18.1985 14.6667 17.4167 14.6667Z" stroke="white"/>
</svg>
